<mxfile host="app.diagrams.net" modified="2024-05-28T15:26:53.906Z" agent="Mozilla/5.0 (Windows NT 10.0; Win64; x64) AppleWebKit/537.36 (KHTML, like Gecko) Chrome/125.0.0.0 Safari/537.36" etag="T42RXZbqrjQSrDJmlscL" version="24.4.6" type="device" pages="3">
  <diagram name="Registration" id="e8WeD38mwz2XmSLXWJGb">
    <mxGraphModel dx="1195" dy="615" grid="1" gridSize="10" guides="1" tooltips="1" connect="1" arrows="1" fold="1" page="1" pageScale="1" pageWidth="850" pageHeight="1100" math="0" shadow="0">
      <root>
        <mxCell id="0" />
        <mxCell id="1" parent="0" />
        <mxCell id="IPaPuVr6dz9D-uxDOfig-1" value="Backend" style="shape=umlLifeline;perimeter=lifelinePerimeter;whiteSpace=wrap;html=1;container=1;dropTarget=0;collapsible=0;recursiveResize=0;outlineConnect=0;portConstraint=eastwest;newEdgeStyle={&quot;curved&quot;:0,&quot;rounded&quot;:0};" parent="1" vertex="1">
          <mxGeometry x="475" y="200" width="100" height="440" as="geometry" />
        </mxCell>
        <mxCell id="HSuIYQKYW7eN7etDsStB-13" value="" style="html=1;points=[[0,0,0,0,5],[0,1,0,0,-5],[1,0,0,0,5],[1,1,0,0,-5]];perimeter=orthogonalPerimeter;outlineConnect=0;targetShapes=umlLifeline;portConstraint=eastwest;newEdgeStyle={&quot;curved&quot;:0,&quot;rounded&quot;:0};" vertex="1" parent="IPaPuVr6dz9D-uxDOfig-1">
          <mxGeometry x="45" y="110" width="10" height="250" as="geometry" />
        </mxCell>
        <mxCell id="HSuIYQKYW7eN7etDsStB-19" value="" style="html=1;points=[[0,0,0,0,5],[0,1,0,0,-5],[1,0,0,0,5],[1,1,0,0,-5]];perimeter=orthogonalPerimeter;outlineConnect=0;targetShapes=umlLifeline;portConstraint=eastwest;newEdgeStyle={&quot;curved&quot;:0,&quot;rounded&quot;:0};" vertex="1" parent="IPaPuVr6dz9D-uxDOfig-1">
          <mxGeometry x="50" y="200" width="10" height="40" as="geometry" />
        </mxCell>
        <mxCell id="HSuIYQKYW7eN7etDsStB-20" value="Validate duplicate&lt;div&gt;user&lt;/div&gt;" style="html=1;align=left;spacingLeft=2;endArrow=block;rounded=0;edgeStyle=orthogonalEdgeStyle;curved=0;rounded=0;" edge="1" target="HSuIYQKYW7eN7etDsStB-19" parent="IPaPuVr6dz9D-uxDOfig-1">
          <mxGeometry x="0.1765" relative="1" as="geometry">
            <mxPoint x="55" y="180" as="sourcePoint" />
            <Array as="points">
              <mxPoint x="85" y="180" />
              <mxPoint x="85" y="210" />
            </Array>
            <mxPoint as="offset" />
          </mxGeometry>
        </mxCell>
        <mxCell id="HSuIYQKYW7eN7etDsStB-1" value="Database" style="shape=umlLifeline;perimeter=lifelinePerimeter;whiteSpace=wrap;html=1;container=1;dropTarget=0;collapsible=0;recursiveResize=0;outlineConnect=0;portConstraint=eastwest;newEdgeStyle={&quot;curved&quot;:0,&quot;rounded&quot;:0};" vertex="1" parent="1">
          <mxGeometry x="675" y="200" width="100" height="440" as="geometry" />
        </mxCell>
        <mxCell id="HSuIYQKYW7eN7etDsStB-15" value="" style="html=1;points=[[0,0,0,0,5],[0,1,0,0,-5],[1,0,0,0,5],[1,1,0,0,-5]];perimeter=orthogonalPerimeter;outlineConnect=0;targetShapes=umlLifeline;portConstraint=eastwest;newEdgeStyle={&quot;curved&quot;:0,&quot;rounded&quot;:0};" vertex="1" parent="HSuIYQKYW7eN7etDsStB-1">
          <mxGeometry x="45" y="130" width="10" height="40" as="geometry" />
        </mxCell>
        <mxCell id="HSuIYQKYW7eN7etDsStB-24" value="" style="html=1;points=[[0,0,0,0,5],[0,1,0,0,-5],[1,0,0,0,5],[1,1,0,0,-5]];perimeter=orthogonalPerimeter;outlineConnect=0;targetShapes=umlLifeline;portConstraint=eastwest;newEdgeStyle={&quot;curved&quot;:0,&quot;rounded&quot;:0};" vertex="1" parent="HSuIYQKYW7eN7etDsStB-1">
          <mxGeometry x="45" y="270" width="10" height="40" as="geometry" />
        </mxCell>
        <mxCell id="HSuIYQKYW7eN7etDsStB-2" value="User" style="shape=umlLifeline;perimeter=lifelinePerimeter;whiteSpace=wrap;html=1;container=1;dropTarget=0;collapsible=0;recursiveResize=0;outlineConnect=0;portConstraint=eastwest;newEdgeStyle={&quot;curved&quot;:0,&quot;rounded&quot;:0};" vertex="1" parent="1">
          <mxGeometry x="75" y="200" width="100" height="440" as="geometry" />
        </mxCell>
        <mxCell id="HSuIYQKYW7eN7etDsStB-9" value="" style="html=1;points=[[0,0,0,0,5],[0,1,0,0,-5],[1,0,0,0,5],[1,1,0,0,-5]];perimeter=orthogonalPerimeter;outlineConnect=0;targetShapes=umlLifeline;portConstraint=eastwest;newEdgeStyle={&quot;curved&quot;:0,&quot;rounded&quot;:0};" vertex="1" parent="HSuIYQKYW7eN7etDsStB-2">
          <mxGeometry x="45" y="50" width="10" height="60" as="geometry" />
        </mxCell>
        <mxCell id="HSuIYQKYW7eN7etDsStB-22" value="" style="html=1;points=[[0,0,0,0,5],[0,1,0,0,-5],[1,0,0,0,5],[1,1,0,0,-5]];perimeter=orthogonalPerimeter;outlineConnect=0;targetShapes=umlLifeline;portConstraint=eastwest;newEdgeStyle={&quot;curved&quot;:0,&quot;rounded&quot;:0};" vertex="1" parent="HSuIYQKYW7eN7etDsStB-2">
          <mxGeometry x="45" y="250" width="10" height="40" as="geometry" />
        </mxCell>
        <mxCell id="HSuIYQKYW7eN7etDsStB-29" value="" style="html=1;points=[[0,0,0,0,5],[0,1,0,0,-5],[1,0,0,0,5],[1,1,0,0,-5]];perimeter=orthogonalPerimeter;outlineConnect=0;targetShapes=umlLifeline;portConstraint=eastwest;newEdgeStyle={&quot;curved&quot;:0,&quot;rounded&quot;:0};" vertex="1" parent="HSuIYQKYW7eN7etDsStB-2">
          <mxGeometry x="45" y="360" width="10" height="80" as="geometry" />
        </mxCell>
        <mxCell id="HSuIYQKYW7eN7etDsStB-3" value="Mobile App" style="shape=umlLifeline;perimeter=lifelinePerimeter;whiteSpace=wrap;html=1;container=1;dropTarget=0;collapsible=0;recursiveResize=0;outlineConnect=0;portConstraint=eastwest;newEdgeStyle={&quot;curved&quot;:0,&quot;rounded&quot;:0};" vertex="1" parent="1">
          <mxGeometry x="275" y="200" width="100" height="440" as="geometry" />
        </mxCell>
        <mxCell id="HSuIYQKYW7eN7etDsStB-10" value="" style="html=1;points=[[0,0,0,0,5],[0,1,0,0,-5],[1,0,0,0,5],[1,1,0,0,-5]];perimeter=orthogonalPerimeter;outlineConnect=0;targetShapes=umlLifeline;portConstraint=eastwest;newEdgeStyle={&quot;curved&quot;:0,&quot;rounded&quot;:0};" vertex="1" parent="HSuIYQKYW7eN7etDsStB-3">
          <mxGeometry x="45" y="90" width="10" height="280" as="geometry" />
        </mxCell>
        <mxCell id="HSuIYQKYW7eN7etDsStB-4" value="Sequence Diagram Registration" style="text;html=1;align=center;verticalAlign=middle;whiteSpace=wrap;rounded=0;fontStyle=1;fontSize=17;" vertex="1" parent="1">
          <mxGeometry x="288" y="140" width="275" height="60" as="geometry" />
        </mxCell>
        <mxCell id="HSuIYQKYW7eN7etDsStB-11" value="Input registration form" style="html=1;verticalAlign=bottom;endArrow=block;curved=0;rounded=0;entryX=0;entryY=0;entryDx=0;entryDy=5;" edge="1" target="HSuIYQKYW7eN7etDsStB-10" parent="1" source="HSuIYQKYW7eN7etDsStB-9">
          <mxGeometry relative="1" as="geometry">
            <mxPoint x="250" y="305" as="sourcePoint" />
          </mxGeometry>
        </mxCell>
        <mxCell id="HSuIYQKYW7eN7etDsStB-14" value="Send payload to BE" style="html=1;verticalAlign=bottom;endArrow=block;curved=0;rounded=0;entryX=0;entryY=0;entryDx=0;entryDy=5;entryPerimeter=0;" edge="1" parent="1" source="HSuIYQKYW7eN7etDsStB-10" target="HSuIYQKYW7eN7etDsStB-13">
          <mxGeometry relative="1" as="geometry">
            <mxPoint x="330" y="300" as="sourcePoint" />
            <mxPoint x="520" y="300" as="targetPoint" />
          </mxGeometry>
        </mxCell>
        <mxCell id="HSuIYQKYW7eN7etDsStB-16" value="Find user by email" style="html=1;verticalAlign=bottom;endArrow=block;curved=0;rounded=0;entryX=0;entryY=0;entryDx=0;entryDy=5;entryPerimeter=0;" edge="1" parent="1" source="HSuIYQKYW7eN7etDsStB-13" target="HSuIYQKYW7eN7etDsStB-15">
          <mxGeometry relative="1" as="geometry">
            <mxPoint x="530" y="330" as="sourcePoint" />
            <mxPoint x="530" y="325" as="targetPoint" />
          </mxGeometry>
        </mxCell>
        <mxCell id="HSuIYQKYW7eN7etDsStB-18" value="Return user data" style="html=1;verticalAlign=bottom;endArrow=open;dashed=1;endSize=8;curved=0;rounded=0;exitX=0;exitY=1;exitDx=0;exitDy=-5;exitPerimeter=0;" edge="1" parent="1" source="HSuIYQKYW7eN7etDsStB-15" target="HSuIYQKYW7eN7etDsStB-13">
          <mxGeometry relative="1" as="geometry">
            <mxPoint x="705" y="370" as="sourcePoint" />
            <mxPoint x="575" y="370" as="targetPoint" />
          </mxGeometry>
        </mxCell>
        <mxCell id="HSuIYQKYW7eN7etDsStB-21" value="Return error for user already&amp;nbsp;&lt;div&gt;registered&lt;/div&gt;" style="html=1;verticalAlign=bottom;endArrow=open;dashed=1;endSize=8;curved=0;rounded=0;exitX=0;exitY=1;exitDx=0;exitDy=-5;exitPerimeter=0;" edge="1" parent="1" source="HSuIYQKYW7eN7etDsStB-19" target="HSuIYQKYW7eN7etDsStB-10">
          <mxGeometry relative="1" as="geometry">
            <mxPoint x="520.5" y="420" as="sourcePoint" />
            <mxPoint x="330.5" y="420" as="targetPoint" />
          </mxGeometry>
        </mxCell>
        <mxCell id="HSuIYQKYW7eN7etDsStB-23" value="Receive error message" style="html=1;verticalAlign=bottom;endArrow=open;dashed=1;endSize=8;curved=0;rounded=0;entryX=1;entryY=0;entryDx=0;entryDy=5;entryPerimeter=0;" edge="1" parent="1" source="HSuIYQKYW7eN7etDsStB-10" target="HSuIYQKYW7eN7etDsStB-22">
          <mxGeometry relative="1" as="geometry">
            <mxPoint x="305" y="460" as="sourcePoint" />
            <mxPoint x="110" y="460" as="targetPoint" />
          </mxGeometry>
        </mxCell>
        <mxCell id="HSuIYQKYW7eN7etDsStB-25" value="Create user to database" style="html=1;verticalAlign=bottom;endArrow=block;curved=0;rounded=0;entryX=0;entryY=0;entryDx=0;entryDy=5;entryPerimeter=0;" edge="1" parent="1" source="HSuIYQKYW7eN7etDsStB-13" target="HSuIYQKYW7eN7etDsStB-24">
          <mxGeometry width="80" relative="1" as="geometry">
            <mxPoint x="530" y="480" as="sourcePoint" />
            <mxPoint x="610" y="480" as="targetPoint" />
          </mxGeometry>
        </mxCell>
        <mxCell id="HSuIYQKYW7eN7etDsStB-26" value="Return user data" style="html=1;verticalAlign=bottom;endArrow=open;dashed=1;endSize=8;curved=0;rounded=0;exitX=0;exitY=1;exitDx=0;exitDy=-5;exitPerimeter=0;" edge="1" parent="1" source="HSuIYQKYW7eN7etDsStB-24" target="HSuIYQKYW7eN7etDsStB-13">
          <mxGeometry relative="1" as="geometry">
            <mxPoint x="720" y="500" as="sourcePoint" />
            <mxPoint x="530" y="500" as="targetPoint" />
            <mxPoint as="offset" />
          </mxGeometry>
        </mxCell>
        <mxCell id="HSuIYQKYW7eN7etDsStB-28" value="Return message registration&amp;nbsp;&lt;div&gt;success&lt;/div&gt;" style="html=1;verticalAlign=bottom;endArrow=open;dashed=1;endSize=8;curved=0;rounded=0;" edge="1" parent="1">
          <mxGeometry x="-0.0015" relative="1" as="geometry">
            <mxPoint x="520" y="540" as="sourcePoint" />
            <mxPoint x="330" y="540" as="targetPoint" />
            <mxPoint as="offset" />
          </mxGeometry>
        </mxCell>
        <mxCell id="HSuIYQKYW7eN7etDsStB-31" value="Redirect to login page" style="html=1;verticalAlign=bottom;endArrow=open;dashed=1;endSize=8;curved=0;rounded=0;entryX=1;entryY=0;entryDx=0;entryDy=5;entryPerimeter=0;exitX=0;exitY=1;exitDx=0;exitDy=-5;exitPerimeter=0;" edge="1" parent="1" source="HSuIYQKYW7eN7etDsStB-10" target="HSuIYQKYW7eN7etDsStB-29">
          <mxGeometry relative="1" as="geometry">
            <mxPoint x="320" y="560" as="sourcePoint" />
            <mxPoint x="130" y="560" as="targetPoint" />
          </mxGeometry>
        </mxCell>
      </root>
    </mxGraphModel>
  </diagram>
  <diagram id="DjuG397ECH4oGHTRbkDG" name="Swipe">
    <mxGraphModel dx="683" dy="351" grid="1" gridSize="10" guides="1" tooltips="1" connect="1" arrows="1" fold="1" page="1" pageScale="1" pageWidth="850" pageHeight="1100" math="0" shadow="0">
      <root>
        <mxCell id="0" />
        <mxCell id="1" parent="0" />
        <mxCell id="ZT-5PNZJZkiBre_Husa9-1" value="Backend" style="shape=umlLifeline;perimeter=lifelinePerimeter;whiteSpace=wrap;html=1;container=1;dropTarget=0;collapsible=0;recursiveResize=0;outlineConnect=0;portConstraint=eastwest;newEdgeStyle={&quot;curved&quot;:0,&quot;rounded&quot;:0};" vertex="1" parent="1">
          <mxGeometry x="475" y="200" width="100" height="1000" as="geometry" />
        </mxCell>
        <mxCell id="ZT-5PNZJZkiBre_Husa9-2" value="" style="html=1;points=[[0,0,0,0,5],[0,1,0,0,-5],[1,0,0,0,5],[1,1,0,0,-5]];perimeter=orthogonalPerimeter;outlineConnect=0;targetShapes=umlLifeline;portConstraint=eastwest;newEdgeStyle={&quot;curved&quot;:0,&quot;rounded&quot;:0};" vertex="1" parent="ZT-5PNZJZkiBre_Husa9-1">
          <mxGeometry x="45" y="110" width="10" height="290" as="geometry" />
        </mxCell>
        <mxCell id="MqtiWKdNlRamMwq8xSrq-1" value="" style="html=1;points=[[0,0,0,0,5],[0,1,0,0,-5],[1,0,0,0,5],[1,1,0,0,-5]];perimeter=orthogonalPerimeter;outlineConnect=0;targetShapes=umlLifeline;portConstraint=eastwest;newEdgeStyle={&quot;curved&quot;:0,&quot;rounded&quot;:0};" vertex="1" parent="ZT-5PNZJZkiBre_Husa9-1">
          <mxGeometry x="50" y="270" width="10" height="40" as="geometry" />
        </mxCell>
        <mxCell id="MqtiWKdNlRamMwq8xSrq-2" value="Validate user password&lt;div&gt;with payload&lt;/div&gt;" style="html=1;align=left;spacingLeft=2;endArrow=block;rounded=0;edgeStyle=orthogonalEdgeStyle;curved=0;rounded=0;" edge="1" target="MqtiWKdNlRamMwq8xSrq-1" parent="ZT-5PNZJZkiBre_Husa9-1">
          <mxGeometry relative="1" as="geometry">
            <mxPoint x="55" y="250" as="sourcePoint" />
            <Array as="points">
              <mxPoint x="85" y="280" />
            </Array>
          </mxGeometry>
        </mxCell>
        <mxCell id="_D3CULkvTSyc-R2U7R-Y-5" value="" style="html=1;points=[[0,0,0,0,5],[0,1,0,0,-5],[1,0,0,0,5],[1,1,0,0,-5]];perimeter=orthogonalPerimeter;outlineConnect=0;targetShapes=umlLifeline;portConstraint=eastwest;newEdgeStyle={&quot;curved&quot;:0,&quot;rounded&quot;:0};" vertex="1" parent="ZT-5PNZJZkiBre_Husa9-1">
          <mxGeometry x="45" y="470" width="10" height="200" as="geometry" />
        </mxCell>
        <mxCell id="_D3CULkvTSyc-R2U7R-Y-8" value="" style="html=1;points=[[0,0,0,0,5],[0,1,0,0,-5],[1,0,0,0,5],[1,1,0,0,-5]];perimeter=orthogonalPerimeter;outlineConnect=0;targetShapes=umlLifeline;portConstraint=eastwest;newEdgeStyle={&quot;curved&quot;:0,&quot;rounded&quot;:0};" vertex="1" parent="ZT-5PNZJZkiBre_Husa9-1">
          <mxGeometry x="50" y="520" width="10" height="40" as="geometry" />
        </mxCell>
        <mxCell id="_D3CULkvTSyc-R2U7R-Y-9" value="Find potential&lt;div&gt;user&lt;/div&gt;" style="html=1;align=left;spacingLeft=2;endArrow=block;rounded=0;edgeStyle=orthogonalEdgeStyle;curved=0;rounded=0;" edge="1" target="_D3CULkvTSyc-R2U7R-Y-8" parent="ZT-5PNZJZkiBre_Husa9-1">
          <mxGeometry relative="1" as="geometry">
            <mxPoint x="55" y="500" as="sourcePoint" />
            <Array as="points">
              <mxPoint x="85" y="530" />
            </Array>
          </mxGeometry>
        </mxCell>
        <mxCell id="R-_y6AS798RjOOHm4I8l-4" value="" style="html=1;points=[[0,0,0,0,5],[0,1,0,0,-5],[1,0,0,0,5],[1,1,0,0,-5]];perimeter=orthogonalPerimeter;outlineConnect=0;targetShapes=umlLifeline;portConstraint=eastwest;newEdgeStyle={&quot;curved&quot;:0,&quot;rounded&quot;:0};" vertex="1" parent="ZT-5PNZJZkiBre_Husa9-1">
          <mxGeometry x="45" y="740" width="10" height="200" as="geometry" />
        </mxCell>
        <mxCell id="R-_y6AS798RjOOHm4I8l-8" value="" style="html=1;points=[[0,0,0,0,5],[0,1,0,0,-5],[1,0,0,0,5],[1,1,0,0,-5]];perimeter=orthogonalPerimeter;outlineConnect=0;targetShapes=umlLifeline;portConstraint=eastwest;newEdgeStyle={&quot;curved&quot;:0,&quot;rounded&quot;:0};" vertex="1" parent="ZT-5PNZJZkiBre_Husa9-1">
          <mxGeometry x="50" y="810" width="10" height="40" as="geometry" />
        </mxCell>
        <mxCell id="R-_y6AS798RjOOHm4I8l-9" value="Find potential&lt;div&gt;user&lt;/div&gt;" style="html=1;align=left;spacingLeft=2;endArrow=block;rounded=0;edgeStyle=orthogonalEdgeStyle;curved=0;rounded=0;" edge="1" parent="ZT-5PNZJZkiBre_Husa9-1" target="R-_y6AS798RjOOHm4I8l-8">
          <mxGeometry relative="1" as="geometry">
            <mxPoint x="55" y="790" as="sourcePoint" />
            <Array as="points">
              <mxPoint x="85" y="820" />
            </Array>
          </mxGeometry>
        </mxCell>
        <mxCell id="ZT-5PNZJZkiBre_Husa9-5" value="Database" style="shape=umlLifeline;perimeter=lifelinePerimeter;whiteSpace=wrap;html=1;container=1;dropTarget=0;collapsible=0;recursiveResize=0;outlineConnect=0;portConstraint=eastwest;newEdgeStyle={&quot;curved&quot;:0,&quot;rounded&quot;:0};" vertex="1" parent="1">
          <mxGeometry x="675" y="200" width="100" height="1000" as="geometry" />
        </mxCell>
        <mxCell id="ZT-5PNZJZkiBre_Husa9-6" value="" style="html=1;points=[[0,0,0,0,5],[0,1,0,0,-5],[1,0,0,0,5],[1,1,0,0,-5]];perimeter=orthogonalPerimeter;outlineConnect=0;targetShapes=umlLifeline;portConstraint=eastwest;newEdgeStyle={&quot;curved&quot;:0,&quot;rounded&quot;:0};" vertex="1" parent="ZT-5PNZJZkiBre_Husa9-5">
          <mxGeometry x="45" y="130" width="10" height="40" as="geometry" />
        </mxCell>
        <mxCell id="ZT-5PNZJZkiBre_Husa9-7" value="" style="html=1;points=[[0,0,0,0,5],[0,1,0,0,-5],[1,0,0,0,5],[1,1,0,0,-5]];perimeter=orthogonalPerimeter;outlineConnect=0;targetShapes=umlLifeline;portConstraint=eastwest;newEdgeStyle={&quot;curved&quot;:0,&quot;rounded&quot;:0};" vertex="1" parent="ZT-5PNZJZkiBre_Husa9-5">
          <mxGeometry x="45" y="580" width="10" height="40" as="geometry" />
        </mxCell>
        <mxCell id="R-_y6AS798RjOOHm4I8l-6" value="" style="html=1;points=[[0,0,0,0,5],[0,1,0,0,-5],[1,0,0,0,5],[1,1,0,0,-5]];perimeter=orthogonalPerimeter;outlineConnect=0;targetShapes=umlLifeline;portConstraint=eastwest;newEdgeStyle={&quot;curved&quot;:0,&quot;rounded&quot;:0};" vertex="1" parent="ZT-5PNZJZkiBre_Husa9-5">
          <mxGeometry x="45" y="760" width="10" height="40" as="geometry" />
        </mxCell>
        <mxCell id="R-_y6AS798RjOOHm4I8l-10" value="" style="html=1;points=[[0,0,0,0,5],[0,1,0,0,-5],[1,0,0,0,5],[1,1,0,0,-5]];perimeter=orthogonalPerimeter;outlineConnect=0;targetShapes=umlLifeline;portConstraint=eastwest;newEdgeStyle={&quot;curved&quot;:0,&quot;rounded&quot;:0};" vertex="1" parent="ZT-5PNZJZkiBre_Husa9-5">
          <mxGeometry x="45" y="870" width="10" height="40" as="geometry" />
        </mxCell>
        <mxCell id="ZT-5PNZJZkiBre_Husa9-8" value="User" style="shape=umlLifeline;perimeter=lifelinePerimeter;whiteSpace=wrap;html=1;container=1;dropTarget=0;collapsible=0;recursiveResize=0;outlineConnect=0;portConstraint=eastwest;newEdgeStyle={&quot;curved&quot;:0,&quot;rounded&quot;:0};" vertex="1" parent="1">
          <mxGeometry x="75" y="200" width="100" height="1000" as="geometry" />
        </mxCell>
        <mxCell id="ZT-5PNZJZkiBre_Husa9-9" value="" style="html=1;points=[[0,0,0,0,5],[0,1,0,0,-5],[1,0,0,0,5],[1,1,0,0,-5]];perimeter=orthogonalPerimeter;outlineConnect=0;targetShapes=umlLifeline;portConstraint=eastwest;newEdgeStyle={&quot;curved&quot;:0,&quot;rounded&quot;:0};" vertex="1" parent="ZT-5PNZJZkiBre_Husa9-8">
          <mxGeometry x="45" y="50" width="10" height="50" as="geometry" />
        </mxCell>
        <mxCell id="ZT-5PNZJZkiBre_Husa9-10" value="" style="html=1;points=[[0,0,0,0,5],[0,1,0,0,-5],[1,0,0,0,5],[1,1,0,0,-5]];perimeter=orthogonalPerimeter;outlineConnect=0;targetShapes=umlLifeline;portConstraint=eastwest;newEdgeStyle={&quot;curved&quot;:0,&quot;rounded&quot;:0};" vertex="1" parent="ZT-5PNZJZkiBre_Husa9-8">
          <mxGeometry x="45" y="230" width="10" height="40" as="geometry" />
        </mxCell>
        <mxCell id="MqtiWKdNlRamMwq8xSrq-4" value="" style="html=1;points=[[0,0,0,0,5],[0,1,0,0,-5],[1,0,0,0,5],[1,1,0,0,-5]];perimeter=orthogonalPerimeter;outlineConnect=0;targetShapes=umlLifeline;portConstraint=eastwest;newEdgeStyle={&quot;curved&quot;:0,&quot;rounded&quot;:0};" vertex="1" parent="ZT-5PNZJZkiBre_Husa9-8">
          <mxGeometry x="45" y="320" width="10" height="40" as="geometry" />
        </mxCell>
        <mxCell id="_D3CULkvTSyc-R2U7R-Y-2" value="" style="html=1;points=[[0,0,0,0,5],[0,1,0,0,-5],[1,0,0,0,5],[1,1,0,0,-5]];perimeter=orthogonalPerimeter;outlineConnect=0;targetShapes=umlLifeline;portConstraint=eastwest;newEdgeStyle={&quot;curved&quot;:0,&quot;rounded&quot;:0};" vertex="1" parent="ZT-5PNZJZkiBre_Husa9-8">
          <mxGeometry x="45" y="390" width="10" height="40" as="geometry" />
        </mxCell>
        <mxCell id="_D3CULkvTSyc-R2U7R-Y-12" value="" style="html=1;points=[[0,0,0,0,5],[0,1,0,0,-5],[1,0,0,0,5],[1,1,0,0,-5]];perimeter=orthogonalPerimeter;outlineConnect=0;targetShapes=umlLifeline;portConstraint=eastwest;newEdgeStyle={&quot;curved&quot;:0,&quot;rounded&quot;:0};" vertex="1" parent="ZT-5PNZJZkiBre_Husa9-8">
          <mxGeometry x="45" y="660" width="10" height="70" as="geometry" />
        </mxCell>
        <mxCell id="R-_y6AS798RjOOHm4I8l-14" value="" style="html=1;points=[[0,0,0,0,5],[0,1,0,0,-5],[1,0,0,0,5],[1,1,0,0,-5]];perimeter=orthogonalPerimeter;outlineConnect=0;targetShapes=umlLifeline;portConstraint=eastwest;newEdgeStyle={&quot;curved&quot;:0,&quot;rounded&quot;:0};" vertex="1" parent="ZT-5PNZJZkiBre_Husa9-8">
          <mxGeometry x="45" y="940" width="10" height="40" as="geometry" />
        </mxCell>
        <mxCell id="ZT-5PNZJZkiBre_Husa9-12" value="Mobile App" style="shape=umlLifeline;perimeter=lifelinePerimeter;whiteSpace=wrap;html=1;container=1;dropTarget=0;collapsible=0;recursiveResize=0;outlineConnect=0;portConstraint=eastwest;newEdgeStyle={&quot;curved&quot;:0,&quot;rounded&quot;:0};" vertex="1" parent="1">
          <mxGeometry x="275" y="200" width="100" height="1000" as="geometry" />
        </mxCell>
        <mxCell id="ZT-5PNZJZkiBre_Husa9-13" value="" style="html=1;points=[[0,0,0,0,5],[0,1,0,0,-5],[1,0,0,0,5],[1,1,0,0,-5]];perimeter=orthogonalPerimeter;outlineConnect=0;targetShapes=umlLifeline;portConstraint=eastwest;newEdgeStyle={&quot;curved&quot;:0,&quot;rounded&quot;:0};" vertex="1" parent="ZT-5PNZJZkiBre_Husa9-12">
          <mxGeometry x="45" y="90" width="10" height="310" as="geometry" />
        </mxCell>
        <mxCell id="_D3CULkvTSyc-R2U7R-Y-4" value="" style="html=1;points=[[0,0,0,0,5],[0,1,0,0,-5],[1,0,0,0,5],[1,1,0,0,-5]];perimeter=orthogonalPerimeter;outlineConnect=0;targetShapes=umlLifeline;portConstraint=eastwest;newEdgeStyle={&quot;curved&quot;:0,&quot;rounded&quot;:0};" vertex="1" parent="ZT-5PNZJZkiBre_Husa9-12">
          <mxGeometry x="45" y="460" width="10" height="210" as="geometry" />
        </mxCell>
        <mxCell id="R-_y6AS798RjOOHm4I8l-2" value="" style="html=1;points=[[0,0,0,0,5],[0,1,0,0,-5],[1,0,0,0,5],[1,1,0,0,-5]];perimeter=orthogonalPerimeter;outlineConnect=0;targetShapes=umlLifeline;portConstraint=eastwest;newEdgeStyle={&quot;curved&quot;:0,&quot;rounded&quot;:0};" vertex="1" parent="ZT-5PNZJZkiBre_Husa9-12">
          <mxGeometry x="45" y="720" width="10" height="230" as="geometry" />
        </mxCell>
        <mxCell id="dh7XBiMpg5tgMv_C2Psp-1" value="Sequence Diagram Swipe" style="text;html=1;align=center;verticalAlign=middle;whiteSpace=wrap;rounded=0;fontStyle=1;fontSize=17;" vertex="1" parent="1">
          <mxGeometry x="288" y="140" width="275" height="60" as="geometry" />
        </mxCell>
        <mxCell id="dh7XBiMpg5tgMv_C2Psp-2" value="Input login form" style="html=1;verticalAlign=bottom;endArrow=block;curved=0;rounded=0;entryX=0;entryY=0;entryDx=0;entryDy=5;entryPerimeter=0;" edge="1" parent="1" source="ZT-5PNZJZkiBre_Husa9-9" target="ZT-5PNZJZkiBre_Husa9-13">
          <mxGeometry width="80" relative="1" as="geometry">
            <mxPoint x="150" y="290" as="sourcePoint" />
            <mxPoint x="230" y="290" as="targetPoint" />
          </mxGeometry>
        </mxCell>
        <mxCell id="l4zKyEoGyl-rVhmJmoYp-1" value="Send payload to BE" style="html=1;verticalAlign=bottom;endArrow=block;curved=0;rounded=0;entryX=0;entryY=0;entryDx=0;entryDy=5;entryPerimeter=0;" edge="1" parent="1" source="ZT-5PNZJZkiBre_Husa9-13" target="ZT-5PNZJZkiBre_Husa9-2">
          <mxGeometry width="80" relative="1" as="geometry">
            <mxPoint x="350" y="370" as="sourcePoint" />
            <mxPoint x="540" y="370" as="targetPoint" />
          </mxGeometry>
        </mxCell>
        <mxCell id="l4zKyEoGyl-rVhmJmoYp-2" value="Find user by email" style="html=1;verticalAlign=bottom;endArrow=block;curved=0;rounded=0;entryX=0;entryY=0;entryDx=0;entryDy=5;entryPerimeter=0;" edge="1" parent="1" source="ZT-5PNZJZkiBre_Husa9-2" target="ZT-5PNZJZkiBre_Husa9-6">
          <mxGeometry width="80" relative="1" as="geometry">
            <mxPoint x="530" y="390" as="sourcePoint" />
            <mxPoint x="720" y="390" as="targetPoint" />
          </mxGeometry>
        </mxCell>
        <mxCell id="l4zKyEoGyl-rVhmJmoYp-3" value="Return user data" style="html=1;verticalAlign=bottom;endArrow=open;dashed=1;endSize=8;curved=0;rounded=0;exitX=0;exitY=1;exitDx=0;exitDy=-5;exitPerimeter=0;" edge="1" parent="1" source="ZT-5PNZJZkiBre_Husa9-6" target="ZT-5PNZJZkiBre_Husa9-2">
          <mxGeometry relative="1" as="geometry">
            <mxPoint x="460" y="390" as="sourcePoint" />
            <mxPoint x="380" y="390" as="targetPoint" />
          </mxGeometry>
        </mxCell>
        <mxCell id="nnDNK_iAcBYgxOS5_IJ--5" value="Return error user not found" style="html=1;verticalAlign=bottom;endArrow=open;dashed=1;endSize=8;curved=0;rounded=0;" edge="1" parent="1">
          <mxGeometry relative="1" as="geometry">
            <mxPoint x="520.5" y="400" as="sourcePoint" />
            <mxPoint x="330.5" y="400" as="targetPoint" />
          </mxGeometry>
        </mxCell>
        <mxCell id="nnDNK_iAcBYgxOS5_IJ--6" value="Receive error message" style="html=1;verticalAlign=bottom;endArrow=open;dashed=1;endSize=8;curved=0;rounded=0;entryX=1;entryY=0;entryDx=0;entryDy=5;entryPerimeter=0;" edge="1" parent="1" source="ZT-5PNZJZkiBre_Husa9-13" target="ZT-5PNZJZkiBre_Husa9-10">
          <mxGeometry relative="1" as="geometry">
            <mxPoint x="320" y="430" as="sourcePoint" />
            <mxPoint x="130" y="430" as="targetPoint" />
            <mxPoint as="offset" />
          </mxGeometry>
        </mxCell>
        <mxCell id="MqtiWKdNlRamMwq8xSrq-3" value="Return error invalid credential" style="html=1;verticalAlign=bottom;endArrow=open;dashed=1;endSize=8;curved=0;rounded=0;exitX=0;exitY=1;exitDx=0;exitDy=-5;exitPerimeter=0;" edge="1" parent="1" source="MqtiWKdNlRamMwq8xSrq-1" target="ZT-5PNZJZkiBre_Husa9-13">
          <mxGeometry relative="1" as="geometry">
            <mxPoint x="490" y="560" as="sourcePoint" />
            <mxPoint x="300" y="560" as="targetPoint" />
          </mxGeometry>
        </mxCell>
        <mxCell id="MqtiWKdNlRamMwq8xSrq-5" value="Receive error message" style="html=1;verticalAlign=bottom;endArrow=open;dashed=1;endSize=8;curved=0;rounded=0;entryX=1;entryY=0;entryDx=0;entryDy=5;entryPerimeter=0;" edge="1" parent="1" source="ZT-5PNZJZkiBre_Husa9-13" target="MqtiWKdNlRamMwq8xSrq-4">
          <mxGeometry relative="1" as="geometry">
            <mxPoint x="320" y="530" as="sourcePoint" />
            <mxPoint x="130" y="530" as="targetPoint" />
            <mxPoint as="offset" />
          </mxGeometry>
        </mxCell>
        <mxCell id="MqtiWKdNlRamMwq8xSrq-6" value="Return access token" style="html=1;verticalAlign=bottom;endArrow=open;dashed=1;endSize=8;curved=0;rounded=0;exitX=0;exitY=1;exitDx=0;exitDy=-5;exitPerimeter=0;" edge="1" parent="1" source="ZT-5PNZJZkiBre_Husa9-2" target="ZT-5PNZJZkiBre_Husa9-13">
          <mxGeometry relative="1" as="geometry">
            <mxPoint x="495" y="580" as="sourcePoint" />
            <mxPoint x="300" y="580" as="targetPoint" />
            <mxPoint as="offset" />
          </mxGeometry>
        </mxCell>
        <mxCell id="_D3CULkvTSyc-R2U7R-Y-3" value="Redirect to home page" style="html=1;verticalAlign=bottom;endArrow=open;dashed=1;endSize=8;curved=0;rounded=0;exitX=0;exitY=1;exitDx=0;exitDy=-5;exitPerimeter=0;" edge="1" parent="1" source="ZT-5PNZJZkiBre_Husa9-13" target="_D3CULkvTSyc-R2U7R-Y-2">
          <mxGeometry relative="1" as="geometry">
            <mxPoint x="310" y="650" as="sourcePoint" />
            <mxPoint x="120" y="650" as="targetPoint" />
            <mxPoint as="offset" />
          </mxGeometry>
        </mxCell>
        <mxCell id="_D3CULkvTSyc-R2U7R-Y-6" value="Request potential match user&amp;nbsp;" style="html=1;verticalAlign=bottom;endArrow=block;curved=0;rounded=0;entryX=0;entryY=0;entryDx=0;entryDy=5;entryPerimeter=0;" edge="1" parent="1" source="_D3CULkvTSyc-R2U7R-Y-4" target="_D3CULkvTSyc-R2U7R-Y-5">
          <mxGeometry width="80" relative="1" as="geometry">
            <mxPoint x="330" y="680" as="sourcePoint" />
            <mxPoint x="520" y="680" as="targetPoint" />
            <mxPoint as="offset" />
          </mxGeometry>
        </mxCell>
        <mxCell id="_D3CULkvTSyc-R2U7R-Y-7" value="Find user data" style="html=1;verticalAlign=bottom;endArrow=block;curved=0;rounded=0;entryX=0;entryY=0;entryDx=0;entryDy=5;entryPerimeter=0;" edge="1" parent="1" source="_D3CULkvTSyc-R2U7R-Y-5" target="ZT-5PNZJZkiBre_Husa9-7">
          <mxGeometry x="0.0025" width="80" relative="1" as="geometry">
            <mxPoint x="530" y="710" as="sourcePoint" />
            <mxPoint x="720" y="710" as="targetPoint" />
            <mxPoint as="offset" />
          </mxGeometry>
        </mxCell>
        <mxCell id="_D3CULkvTSyc-R2U7R-Y-10" value="Return user data" style="html=1;verticalAlign=bottom;endArrow=open;dashed=1;endSize=8;curved=0;rounded=0;exitX=0;exitY=1;exitDx=0;exitDy=-5;exitPerimeter=0;" edge="1" parent="1" source="ZT-5PNZJZkiBre_Husa9-7" target="_D3CULkvTSyc-R2U7R-Y-5">
          <mxGeometry x="-0.0526" relative="1" as="geometry">
            <mxPoint x="720" y="810" as="sourcePoint" />
            <mxPoint x="530" y="810" as="targetPoint" />
            <mxPoint as="offset" />
          </mxGeometry>
        </mxCell>
        <mxCell id="_D3CULkvTSyc-R2U7R-Y-11" value="Return user data" style="html=1;verticalAlign=bottom;endArrow=open;dashed=1;endSize=8;curved=0;rounded=0;exitX=0;exitY=1;exitDx=0;exitDy=-5;exitPerimeter=0;" edge="1" parent="1">
          <mxGeometry x="-0.0526" relative="1" as="geometry">
            <mxPoint x="520" y="840" as="sourcePoint" />
            <mxPoint x="330" y="840" as="targetPoint" />
            <mxPoint as="offset" />
          </mxGeometry>
        </mxCell>
        <mxCell id="R-_y6AS798RjOOHm4I8l-1" value="Show user data" style="html=1;verticalAlign=bottom;endArrow=open;dashed=1;endSize=8;curved=0;rounded=0;entryX=1;entryY=0;entryDx=0;entryDy=5;entryPerimeter=0;exitX=0;exitY=1;exitDx=0;exitDy=-5;exitPerimeter=0;" edge="1" parent="1" source="_D3CULkvTSyc-R2U7R-Y-4" target="_D3CULkvTSyc-R2U7R-Y-12">
          <mxGeometry x="-0.0526" relative="1" as="geometry">
            <mxPoint x="320" y="870" as="sourcePoint" />
            <mxPoint x="130" y="870" as="targetPoint" />
            <mxPoint as="offset" />
          </mxGeometry>
        </mxCell>
        <mxCell id="R-_y6AS798RjOOHm4I8l-3" value="Decide to swap right or left" style="html=1;verticalAlign=bottom;endArrow=block;curved=0;rounded=0;exitX=1;exitY=1;exitDx=0;exitDy=-5;exitPerimeter=0;" edge="1" parent="1" source="_D3CULkvTSyc-R2U7R-Y-12" target="R-_y6AS798RjOOHm4I8l-2">
          <mxGeometry width="80" relative="1" as="geometry">
            <mxPoint x="160" y="920" as="sourcePoint" />
            <mxPoint x="240" y="920" as="targetPoint" />
          </mxGeometry>
        </mxCell>
        <mxCell id="R-_y6AS798RjOOHm4I8l-5" value="Send payload to BE" style="html=1;verticalAlign=bottom;endArrow=block;curved=0;rounded=0;entryX=0;entryY=0;entryDx=0;entryDy=5;entryPerimeter=0;" edge="1" parent="1" source="R-_y6AS798RjOOHm4I8l-2" target="R-_y6AS798RjOOHm4I8l-4">
          <mxGeometry width="80" relative="1" as="geometry">
            <mxPoint x="350" y="920" as="sourcePoint" />
            <mxPoint x="540" y="920" as="targetPoint" />
          </mxGeometry>
        </mxCell>
        <mxCell id="R-_y6AS798RjOOHm4I8l-7" value="Insert to user matches table" style="html=1;verticalAlign=bottom;endArrow=block;curved=0;rounded=0;entryX=0;entryY=0;entryDx=0;entryDy=5;entryPerimeter=0;" edge="1" parent="1" source="R-_y6AS798RjOOHm4I8l-4" target="R-_y6AS798RjOOHm4I8l-6">
          <mxGeometry width="80" relative="1" as="geometry">
            <mxPoint x="580" y="930" as="sourcePoint" />
            <mxPoint x="770" y="930" as="targetPoint" />
          </mxGeometry>
        </mxCell>
        <mxCell id="R-_y6AS798RjOOHm4I8l-12" value="Return user data" style="html=1;verticalAlign=bottom;endArrow=open;dashed=1;endSize=8;curved=0;rounded=0;exitX=0;exitY=1;exitDx=0;exitDy=-5;exitPerimeter=0;" edge="1" parent="1" source="R-_y6AS798RjOOHm4I8l-10" target="R-_y6AS798RjOOHm4I8l-4">
          <mxGeometry x="-0.0526" relative="1" as="geometry">
            <mxPoint x="720" y="1100" as="sourcePoint" />
            <mxPoint x="530" y="1105" as="targetPoint" />
            <mxPoint as="offset" />
          </mxGeometry>
        </mxCell>
        <mxCell id="R-_y6AS798RjOOHm4I8l-11" value="Find user data" style="html=1;verticalAlign=bottom;endArrow=block;curved=0;rounded=0;entryX=0;entryY=0;entryDx=0;entryDy=5;entryPerimeter=0;" edge="1" parent="1" target="R-_y6AS798RjOOHm4I8l-10" source="R-_y6AS798RjOOHm4I8l-4">
          <mxGeometry x="0.0025" width="80" relative="1" as="geometry">
            <mxPoint x="530" y="1075" as="sourcePoint" />
            <mxPoint x="720" y="1000" as="targetPoint" />
            <mxPoint as="offset" />
          </mxGeometry>
        </mxCell>
        <mxCell id="R-_y6AS798RjOOHm4I8l-13" value="Return user data" style="html=1;verticalAlign=bottom;endArrow=open;dashed=1;endSize=8;curved=0;rounded=0;exitX=0;exitY=1;exitDx=0;exitDy=-5;exitPerimeter=0;" edge="1" parent="1">
          <mxGeometry x="-0.0526" relative="1" as="geometry">
            <mxPoint x="520.5" y="1130" as="sourcePoint" />
            <mxPoint x="330.5" y="1130" as="targetPoint" />
            <mxPoint as="offset" />
          </mxGeometry>
        </mxCell>
        <mxCell id="R-_y6AS798RjOOHm4I8l-16" value="Show user data" style="html=1;verticalAlign=bottom;endArrow=open;dashed=1;endSize=8;curved=0;rounded=0;entryX=1;entryY=0;entryDx=0;entryDy=5;entryPerimeter=0;" edge="1" parent="1" source="R-_y6AS798RjOOHm4I8l-2" target="R-_y6AS798RjOOHm4I8l-14">
          <mxGeometry x="-0.0526" relative="1" as="geometry">
            <mxPoint x="320" y="1150" as="sourcePoint" />
            <mxPoint x="130" y="1150" as="targetPoint" />
            <mxPoint as="offset" />
          </mxGeometry>
        </mxCell>
      </root>
    </mxGraphModel>
  </diagram>
  <diagram id="qtB5cp8OLsz1mTRPemF8" name="Purchase">
    <mxGraphModel dx="1687" dy="868" grid="1" gridSize="10" guides="1" tooltips="1" connect="1" arrows="1" fold="1" page="1" pageScale="1" pageWidth="850" pageHeight="1100" math="0" shadow="0">
      <root>
        <mxCell id="0" />
        <mxCell id="1" parent="0" />
        <mxCell id="oN6IRAC52GNlL7UdRzkI-1" value="Backend" style="shape=umlLifeline;perimeter=lifelinePerimeter;whiteSpace=wrap;html=1;container=1;dropTarget=0;collapsible=0;recursiveResize=0;outlineConnect=0;portConstraint=eastwest;newEdgeStyle={&quot;curved&quot;:0,&quot;rounded&quot;:0};" vertex="1" parent="1">
          <mxGeometry x="475" y="200" width="100" height="560" as="geometry" />
        </mxCell>
        <mxCell id="oN6IRAC52GNlL7UdRzkI-2" value="" style="html=1;points=[[0,0,0,0,5],[0,1,0,0,-5],[1,0,0,0,5],[1,1,0,0,-5]];perimeter=orthogonalPerimeter;outlineConnect=0;targetShapes=umlLifeline;portConstraint=eastwest;newEdgeStyle={&quot;curved&quot;:0,&quot;rounded&quot;:0};" vertex="1" parent="oN6IRAC52GNlL7UdRzkI-1">
          <mxGeometry x="45" y="120" width="10" height="400" as="geometry" />
        </mxCell>
        <mxCell id="oN6IRAC52GNlL7UdRzkI-24" value="" style="html=1;points=[[0,0,0,0,5],[0,1,0,0,-5],[1,0,0,0,5],[1,1,0,0,-5]];perimeter=orthogonalPerimeter;outlineConnect=0;targetShapes=umlLifeline;portConstraint=eastwest;newEdgeStyle={&quot;curved&quot;:0,&quot;rounded&quot;:0};" vertex="1" parent="oN6IRAC52GNlL7UdRzkI-1">
          <mxGeometry x="50" y="385" width="10" height="40" as="geometry" />
        </mxCell>
        <mxCell id="oN6IRAC52GNlL7UdRzkI-25" value="Validate user&lt;div&gt;payment&lt;/div&gt;" style="html=1;align=left;spacingLeft=2;endArrow=block;rounded=0;edgeStyle=orthogonalEdgeStyle;curved=0;rounded=0;" edge="1" target="oN6IRAC52GNlL7UdRzkI-24" parent="oN6IRAC52GNlL7UdRzkI-1">
          <mxGeometry relative="1" as="geometry">
            <mxPoint x="55" y="365" as="sourcePoint" />
            <Array as="points">
              <mxPoint x="85" y="395" />
            </Array>
          </mxGeometry>
        </mxCell>
        <mxCell id="oN6IRAC52GNlL7UdRzkI-5" value="Database" style="shape=umlLifeline;perimeter=lifelinePerimeter;whiteSpace=wrap;html=1;container=1;dropTarget=0;collapsible=0;recursiveResize=0;outlineConnect=0;portConstraint=eastwest;newEdgeStyle={&quot;curved&quot;:0,&quot;rounded&quot;:0};" vertex="1" parent="1">
          <mxGeometry x="675" y="200" width="100" height="560" as="geometry" />
        </mxCell>
        <mxCell id="oN6IRAC52GNlL7UdRzkI-6" value="" style="html=1;points=[[0,0,0,0,5],[0,1,0,0,-5],[1,0,0,0,5],[1,1,0,0,-5]];perimeter=orthogonalPerimeter;outlineConnect=0;targetShapes=umlLifeline;portConstraint=eastwest;newEdgeStyle={&quot;curved&quot;:0,&quot;rounded&quot;:0};" vertex="1" parent="oN6IRAC52GNlL7UdRzkI-5">
          <mxGeometry x="45" y="150" width="10" height="40" as="geometry" />
        </mxCell>
        <mxCell id="oN6IRAC52GNlL7UdRzkI-7" value="" style="html=1;points=[[0,0,0,0,5],[0,1,0,0,-5],[1,0,0,0,5],[1,1,0,0,-5]];perimeter=orthogonalPerimeter;outlineConnect=0;targetShapes=umlLifeline;portConstraint=eastwest;newEdgeStyle={&quot;curved&quot;:0,&quot;rounded&quot;:0};" vertex="1" parent="oN6IRAC52GNlL7UdRzkI-5">
          <mxGeometry x="45" y="450" width="10" height="40" as="geometry" />
        </mxCell>
        <mxCell id="oN6IRAC52GNlL7UdRzkI-8" value="User" style="shape=umlLifeline;perimeter=lifelinePerimeter;whiteSpace=wrap;html=1;container=1;dropTarget=0;collapsible=0;recursiveResize=0;outlineConnect=0;portConstraint=eastwest;newEdgeStyle={&quot;curved&quot;:0,&quot;rounded&quot;:0};" vertex="1" parent="1">
          <mxGeometry x="75" y="200" width="100" height="560" as="geometry" />
        </mxCell>
        <mxCell id="oN6IRAC52GNlL7UdRzkI-9" value="" style="html=1;points=[[0,0,0,0,5],[0,1,0,0,-5],[1,0,0,0,5],[1,1,0,0,-5]];perimeter=orthogonalPerimeter;outlineConnect=0;targetShapes=umlLifeline;portConstraint=eastwest;newEdgeStyle={&quot;curved&quot;:0,&quot;rounded&quot;:0};" vertex="1" parent="oN6IRAC52GNlL7UdRzkI-8">
          <mxGeometry x="45" y="50" width="10" height="60" as="geometry" />
        </mxCell>
        <mxCell id="oN6IRAC52GNlL7UdRzkI-10" value="" style="html=1;points=[[0,0,0,0,5],[0,1,0,0,-5],[1,0,0,0,5],[1,1,0,0,-5]];perimeter=orthogonalPerimeter;outlineConnect=0;targetShapes=umlLifeline;portConstraint=eastwest;newEdgeStyle={&quot;curved&quot;:0,&quot;rounded&quot;:0};" vertex="1" parent="oN6IRAC52GNlL7UdRzkI-8">
          <mxGeometry x="45" y="240" width="10" height="320" as="geometry" />
        </mxCell>
        <mxCell id="oN6IRAC52GNlL7UdRzkI-12" value="Mobile App" style="shape=umlLifeline;perimeter=lifelinePerimeter;whiteSpace=wrap;html=1;container=1;dropTarget=0;collapsible=0;recursiveResize=0;outlineConnect=0;portConstraint=eastwest;newEdgeStyle={&quot;curved&quot;:0,&quot;rounded&quot;:0};" vertex="1" parent="1">
          <mxGeometry x="275" y="200" width="100" height="560" as="geometry" />
        </mxCell>
        <mxCell id="oN6IRAC52GNlL7UdRzkI-13" value="" style="html=1;points=[[0,0,0,0,5],[0,1,0,0,-5],[1,0,0,0,5],[1,1,0,0,-5]];perimeter=orthogonalPerimeter;outlineConnect=0;targetShapes=umlLifeline;portConstraint=eastwest;newEdgeStyle={&quot;curved&quot;:0,&quot;rounded&quot;:0};" vertex="1" parent="oN6IRAC52GNlL7UdRzkI-12">
          <mxGeometry x="45" y="95" width="10" height="445" as="geometry" />
        </mxCell>
        <mxCell id="oN6IRAC52GNlL7UdRzkI-14" value="Sequence Diagram Purchase" style="text;html=1;align=center;verticalAlign=middle;whiteSpace=wrap;rounded=0;fontStyle=1;fontSize=17;" vertex="1" parent="1">
          <mxGeometry x="288" y="140" width="275" height="60" as="geometry" />
        </mxCell>
        <mxCell id="oN6IRAC52GNlL7UdRzkI-15" value="Input purchase form" style="html=1;verticalAlign=bottom;endArrow=block;curved=0;rounded=0;exitX=1;exitY=1;exitDx=0;exitDy=-5;exitPerimeter=0;" edge="1" parent="1" source="oN6IRAC52GNlL7UdRzkI-9" target="oN6IRAC52GNlL7UdRzkI-13">
          <mxGeometry width="80" relative="1" as="geometry">
            <mxPoint x="220" y="310" as="sourcePoint" />
            <mxPoint x="300" y="310" as="targetPoint" />
          </mxGeometry>
        </mxCell>
        <mxCell id="oN6IRAC52GNlL7UdRzkI-16" value="Send payload to BE" style="html=1;verticalAlign=bottom;endArrow=block;curved=0;rounded=0;" edge="1" parent="1" source="oN6IRAC52GNlL7UdRzkI-13">
          <mxGeometry width="80" relative="1" as="geometry">
            <mxPoint x="330.5" y="330" as="sourcePoint" />
            <mxPoint x="520.5" y="330" as="targetPoint" />
          </mxGeometry>
        </mxCell>
        <mxCell id="oN6IRAC52GNlL7UdRzkI-18" value="Insert to order table" style="html=1;verticalAlign=bottom;endArrow=block;curved=0;rounded=0;entryX=0;entryY=0;entryDx=0;entryDy=5;entryPerimeter=0;" edge="1" parent="1" source="oN6IRAC52GNlL7UdRzkI-2" target="oN6IRAC52GNlL7UdRzkI-6">
          <mxGeometry width="80" relative="1" as="geometry">
            <mxPoint x="530" y="350" as="sourcePoint" />
            <mxPoint x="610" y="350" as="targetPoint" />
          </mxGeometry>
        </mxCell>
        <mxCell id="oN6IRAC52GNlL7UdRzkI-19" value="Return data order" style="html=1;verticalAlign=bottom;endArrow=open;dashed=1;endSize=8;curved=0;rounded=0;exitX=0;exitY=1;exitDx=0;exitDy=-5;exitPerimeter=0;" edge="1" parent="1" source="oN6IRAC52GNlL7UdRzkI-6" target="oN6IRAC52GNlL7UdRzkI-2">
          <mxGeometry relative="1" as="geometry">
            <mxPoint x="680" y="390" as="sourcePoint" />
            <mxPoint x="600" y="390" as="targetPoint" />
          </mxGeometry>
        </mxCell>
        <mxCell id="oN6IRAC52GNlL7UdRzkI-20" value="Return invoice data" style="html=1;verticalAlign=bottom;endArrow=open;dashed=1;endSize=8;curved=0;rounded=0;" edge="1" parent="1">
          <mxGeometry relative="1" as="geometry">
            <mxPoint x="520.5" y="410" as="sourcePoint" />
            <mxPoint x="330.5" y="410" as="targetPoint" />
          </mxGeometry>
        </mxCell>
        <mxCell id="oN6IRAC52GNlL7UdRzkI-21" value="Show invoice" style="html=1;verticalAlign=bottom;endArrow=open;dashed=1;endSize=8;curved=0;rounded=0;entryX=1;entryY=0;entryDx=0;entryDy=5;entryPerimeter=0;" edge="1" parent="1" source="oN6IRAC52GNlL7UdRzkI-13" target="oN6IRAC52GNlL7UdRzkI-10">
          <mxGeometry relative="1" as="geometry">
            <mxPoint x="320" y="440" as="sourcePoint" />
            <mxPoint x="130" y="440" as="targetPoint" />
          </mxGeometry>
        </mxCell>
        <mxCell id="oN6IRAC52GNlL7UdRzkI-22" value="Proceed payment" style="html=1;verticalAlign=bottom;endArrow=block;curved=0;rounded=0;" edge="1" parent="1">
          <mxGeometry width="80" relative="1" as="geometry">
            <mxPoint x="130" y="498" as="sourcePoint" />
            <mxPoint x="320" y="498" as="targetPoint" />
          </mxGeometry>
        </mxCell>
        <mxCell id="oN6IRAC52GNlL7UdRzkI-23" value="Send payload to BE" style="html=1;verticalAlign=bottom;endArrow=block;curved=0;rounded=0;" edge="1" parent="1">
          <mxGeometry width="80" relative="1" as="geometry">
            <mxPoint x="330" y="540" as="sourcePoint" />
            <mxPoint x="520" y="540" as="targetPoint" />
          </mxGeometry>
        </mxCell>
        <mxCell id="oN6IRAC52GNlL7UdRzkI-26" value="Return error payment failed" style="html=1;verticalAlign=bottom;endArrow=open;dashed=1;endSize=8;curved=0;rounded=0;exitX=0;exitY=1;exitDx=0;exitDy=-5;exitPerimeter=0;" edge="1" parent="1" source="oN6IRAC52GNlL7UdRzkI-24" target="oN6IRAC52GNlL7UdRzkI-13">
          <mxGeometry x="0.0022" relative="1" as="geometry">
            <mxPoint x="520.5" y="620" as="sourcePoint" />
            <mxPoint x="330.5" y="620" as="targetPoint" />
            <mxPoint as="offset" />
          </mxGeometry>
        </mxCell>
        <mxCell id="oN6IRAC52GNlL7UdRzkI-27" value="Redirect to payment failed page&amp;nbsp;" style="html=1;verticalAlign=bottom;endArrow=open;dashed=1;endSize=8;curved=0;rounded=0;" edge="1" parent="1">
          <mxGeometry x="0.0022" relative="1" as="geometry">
            <mxPoint x="320" y="651.5" as="sourcePoint" />
            <mxPoint x="130" y="651.5" as="targetPoint" />
            <mxPoint as="offset" />
          </mxGeometry>
        </mxCell>
        <mxCell id="oN6IRAC52GNlL7UdRzkI-28" value="Update order status&amp;nbsp;" style="html=1;verticalAlign=bottom;endArrow=block;curved=0;rounded=0;entryX=0;entryY=0;entryDx=0;entryDy=5;entryPerimeter=0;" edge="1" parent="1" source="oN6IRAC52GNlL7UdRzkI-2" target="oN6IRAC52GNlL7UdRzkI-7">
          <mxGeometry x="0.0021" width="80" relative="1" as="geometry">
            <mxPoint x="530" y="650" as="sourcePoint" />
            <mxPoint x="720" y="650" as="targetPoint" />
            <mxPoint as="offset" />
          </mxGeometry>
        </mxCell>
        <mxCell id="oN6IRAC52GNlL7UdRzkI-30" value="Return data order" style="html=1;verticalAlign=bottom;endArrow=open;dashed=1;endSize=8;curved=0;rounded=0;exitX=0;exitY=1;exitDx=0;exitDy=-5;exitPerimeter=0;" edge="1" parent="1" source="oN6IRAC52GNlL7UdRzkI-7" target="oN6IRAC52GNlL7UdRzkI-2">
          <mxGeometry relative="1" as="geometry">
            <mxPoint x="720" y="680" as="sourcePoint" />
            <mxPoint x="530" y="680" as="targetPoint" />
          </mxGeometry>
        </mxCell>
        <mxCell id="oN6IRAC52GNlL7UdRzkI-31" value="Return payment success" style="html=1;verticalAlign=bottom;endArrow=open;dashed=1;endSize=8;curved=0;rounded=0;exitX=0;exitY=1;exitDx=0;exitDy=-5;exitPerimeter=0;" edge="1" parent="1" source="oN6IRAC52GNlL7UdRzkI-2" target="oN6IRAC52GNlL7UdRzkI-13">
          <mxGeometry x="0.0021" relative="1" as="geometry">
            <mxPoint x="520" y="719" as="sourcePoint" />
            <mxPoint x="330" y="719" as="targetPoint" />
            <mxPoint as="offset" />
          </mxGeometry>
        </mxCell>
        <mxCell id="oN6IRAC52GNlL7UdRzkI-32" value="Redirect to payment success page" style="html=1;verticalAlign=bottom;endArrow=open;dashed=1;endSize=8;curved=0;rounded=0;exitX=0;exitY=1;exitDx=0;exitDy=-5;exitPerimeter=0;" edge="1" parent="1" source="oN6IRAC52GNlL7UdRzkI-13" target="oN6IRAC52GNlL7UdRzkI-10">
          <mxGeometry x="0.0021" relative="1" as="geometry">
            <mxPoint x="300" y="740" as="sourcePoint" />
            <mxPoint x="110" y="740" as="targetPoint" />
            <mxPoint as="offset" />
          </mxGeometry>
        </mxCell>
      </root>
    </mxGraphModel>
  </diagram>
</mxfile>
